# xmcd CD database file
#
# Track frame offsets:
#	150
#	13942
#	27326
#	50586
#	72768
#	89312
#
# Disc length: 1352 seconds
#
# Revision: 0
# Processed by: cddbd v1.5.2PL0 Copyright (c) Steve Scherf et al.
# Submitted via: CDex 1.70beta2
#
DISCID=49054606
DTITLE=Michael Garrick Trio - Moonscape
DYEAR=2007
DGENRE=Jazz
TTITLE0=Moonscape
TTITLE1=Music for Shattering Supermarkets
TTITLE2=Sketches Of Israel
TTITLE3=A Face in the Crowd
TTITLE4=Man, Have you ever Heard
TTITLE5=Take-Off
EXTD=YEAR: 2007
EXTT0=
EXTT1=
EXTT2=
EXTT3=
EXTT4=
EXTT5=
PLAYORDER=
